<?xml version="1.0" standalone="no"?>
<!DOCTYPE svg PUBLIC "-//W3C//DTD SVG 20010904//EN"
 "http://www.w3.org/TR/2001/REC-SVG-20010904/DTD/svg10.dtd">
<svg version="1.0" xmlns="http://www.w3.org/2000/svg"
 width="700.000000pt" height="700.000000pt" viewBox="0 0 700.000000 700.000000"
 preserveAspectRatio="xMidYMid meet">
<metadata>
Created by potrace 1.14, written by Peter Selinger 2001-2017
</metadata>
<g transform="translate(0.000000,700.000000) scale(0.100000,-0.100000)"
fill="#000000" stroke="none">
<path d="M655 6849 c-5 -8 -10 -1034 -6 -1119 1 -8 11 -20 24 -26 18 -9 105
-59 485 -279 9 -6 53 -30 97 -54 44 -25 103 -60 132 -78 29 -18 54 -33 57 -33
2 0 50 -27 105 -60 56 -33 103 -60 106 -60 3 0 26 -13 52 -29 27 -16 282 -164
568 -329 1178 -680 1622 -936 1665 -960 25 -14 81 -46 125 -72 117 -69 513
-299 562 -326 23 -13 108 -63 190 -110 81 -48 166 -97 188 -109 22 -13 138
-80 258 -149 120 -69 221 -126 224 -126 4 0 424 241 523 300 119 71 383 220
390 220 6 0 10 4 10 9 0 5 9 12 19 16 26 8 33 41 12 59 -13 12 -985 578 -1121
654 -25 13 -65 37 -90 52 -25 15 -308 180 -630 365 -322 186 -813 470 -1091
631 -278 161 -521 301 -540 312 -19 11 -101 58 -182 106 -82 47 -167 97 -190
110 -23 13 -82 47 -132 76 -49 29 -110 64 -135 78 -25 14 -142 81 -260 150
-118 69 -255 148 -305 177 -49 29 -189 110 -310 180 -121 70 -303 176 -405
235 -102 58 -221 127 -266 153 -80 47 -117 57 -129 36z"/>
<path d="M650 5093 c-1 -66 -2 -4877 -1 -4900 1 -12 9 -27 20 -32 15 -8 41 3
132 54 63 36 121 69 129 74 8 6 44 27 80 47 56 33 579 336 1180 684 102 59
534 309 960 555 426 247 843 488 927 536 83 49 169 98 190 110 21 12 76 44
123 72 79 47 148 86 195 111 11 6 31 18 45 27 14 9 98 58 187 109 l163 94 -66
38 c-36 21 -68 38 -71 38 -4 0 -14 6 -22 14 -9 8 -38 26 -66 41 -27 14 -63 34
-80 44 -215 127 -697 401 -706 401 -6 0 -127 -67 -268 -149 -338 -196 -568
-329 -611 -353 -19 -11 -183 -106 -365 -211 -181 -105 -346 -200 -367 -211
-20 -12 -62 -36 -95 -55 -32 -19 -76 -44 -98 -57 -22 -12 -146 -83 -275 -158
l-235 -136 -3 1338 -2 1338 -242 140 c-132 76 -262 151 -287 166 -25 15 -55
32 -66 38 -11 5 -41 22 -67 37 -44 27 -191 112 -290 168 l-48 27 0 -39z"/>
</g>
</svg>
